<?xml version="1.0" encoding="UTF-8" standalone="no"?>
<!-- Created with Inkscape (http://www.inkscape.org/) -->

<svg
   xmlns:dc="http://purl.org/dc/elements/1.1/"
   xmlns:cc="http://creativecommons.org/ns#"
   xmlns:rdf="http://www.w3.org/1999/02/22-rdf-syntax-ns#"
   xmlns:svg="http://www.w3.org/2000/svg"
   xmlns="http://www.w3.org/2000/svg"
   xmlns:sodipodi="http://sodipodi.sourceforge.net/DTD/sodipodi-0.dtd"
   xmlns:inkscape="http://www.inkscape.org/namespaces/inkscape"
   id="svg3168"
   version="1.1"
   inkscape:version="0.48.2 r9819"
   width="256"
   height="256"
   sodipodi:docname="org.hardknots.wikd.wikdshell-screenshot-1.svg">
  <metadata
     id="metadata3174">
    <rdf:RDF>
      <cc:Work
         rdf:about="">
        <dc:format>image/svg+xml</dc:format>
        <dc:type
           rdf:resource="http://purl.org/dc/dcmitype/StillImage" />
        <dc:title></dc:title>
      </cc:Work>
    </rdf:RDF>
  </metadata>
  <defs
     id="defs3172" />
  <sodipodi:namedview
     pagecolor="#ffffff"
     bordercolor="#666666"
     borderopacity="1"
     objecttolerance="10"
     gridtolerance="10"
     guidetolerance="10"
     inkscape:pageopacity="0"
     inkscape:pageshadow="2"
     inkscape:window-width="1328"
     inkscape:window-height="1006"
     id="namedview3170"
     showgrid="false"
     inkscape:zoom="3.078125"
     inkscape:cx="128"
     inkscape:cy="128"
     inkscape:window-x="0"
     inkscape:window-y="0"
     inkscape:window-maximized="0"
     inkscape:current-layer="svg3168"
     showguides="true"
     inkscape:guide-bbox="true" />
  <path
     style="fill:#ff0000"
     d="m 141.61385,228.10833 c 55.60191,4.87464 87.22772,-50.88243 54.78938,-80.57973 -10.74541,-11.3007 -29.30226,-7.7067 -18.73904,-20.67752 5.8471,-15.38576 8.82339,-32.041287 17.19285,-46.361807 10.52586,-2.372143 27.93633,5.056998 37.22453,-7.067875 C 239.42916,65.331523 246.0276,51.5893 236.452,42.470845 221.00714,26.391059 194.15781,28.360483 180.73465,9.5406853 c -2.02555,-1.7517677 5.06145,11.3992767 9.53964,13.5343607 11.39217,8.578687 27.59237,11.740118 35.06248,25.036199 5.98826,12.087811 -12.06928,21.508371 -20.87023,13.529743 -2.27393,-4.447083 9.54031,-5.59174 10.99777,-9.676935 1.84091,-4.295334 -3.56789,-6.079518 -6.9634,-5.195176 -8.66797,0.157175 -17.33595,0.31435 -26.00392,0.471524 -2.9869,2.340533 -1.95252,6.788817 1.77419,7.374883 4.06994,0.599342 7.4403,1.772709 6.38224,6.579757 -2.07699,8.531933 -6.07256,16.793923 -8.88887,25.221834 -7.89163,21.274515 -15.78327,42.549025 -23.6749,63.823535 -3.63392,-0.18913 -3.49589,-6.2327 -5.59422,-8.80521 -4.92686,-10.85433 -9.85372,-21.70867 -14.78058,-32.56301 7.88727,-17.401729 15.24083,-35.073509 24.22072,-51.952806 3.82007,-2.054532 11.02605,-1.397778 10.99248,-6.724433 -1.21799,-4.544452 -6.0798,-2.626125 -9.59579,-3.0948 -7.59373,-0.137695 -15.18745,-0.275391 -22.78118,-0.413086 -4.81413,1.932123 -2.71461,8.604936 2.44761,8.316507 6.02885,-0.147645 3.94562,5.566368 4.15175,9.644642 -4.12381,10.44974 -8.69725,21.040439 -13.93674,31.008397 -5.92896,-6.40074 -8.72321,-19.533233 -12.75012,-28.518827 -0.44589,-3.593321 -4.62968,-7.606591 -1.65519,-10.815634 2.16036,-3.13406 8.4697,0.19095 9.70873,-4.377961 1.81008,-3.695254 -3.34776,-5.794244 -6.60808,-4.772776 -11.79044,-0.157733 -23.580885,-0.315467 -35.371328,-0.473201 -5.266906,2.206574 -2.102533,9.283338 3.36779,8.469943 5.906912,0.942768 8.265837,6.220203 10.039075,11.159332 7.368783,17.477584 15.905503,34.564593 21.909323,52.539653 -1.32486,5.89621 -4.90846,11.5509 -7.09395,17.35508 -2.42157,5.50606 -4.84314,11.01213 -7.26471,16.51819 -5.93548,-5.45982 -7.00221,-16.4571 -11.206042,-23.84703 -9.515122,-23.83807 -19.819427,-47.382457 -28.529456,-71.530735 2.950511,-3.485185 9.162311,-1.311771 10.453481,-6.529456 -0.892549,-4.329737 -5.0077,-3.811058 -8.593335,-3.679881 -11.186462,-0.151144 -22.372924,-0.302287 -33.559386,-0.453431 -3.202896,1.835212 -3.031469,7.730884 0.608541,8.296081 4.380066,-0.385569 14.314744,7.61333 4.672838,8.043895 C 27.304001,68.363657 16.868883,48.748444 30.046411,40.864106 42.122688,30.10604 62.279892,31.300972 71.193029,16.684586 73.459221,12.383948 76.041689,8.1637712 71.627613,14.446027 64.390285,23.039943 51.11472,21.222059 41.230354,25.182527 27.866745,28.668059 11.786648,35.429278 8.6204448,50.407819 4.590103,64.735995 15.71993,80.330308 30.32114,82.208502 c 11.317842,3.113553 20.888437,-2.427036 26.421984,1.150324 14.73307,31.912834 28.3105,64.351644 40.397128,97.360524 5.602838,3.35256 11.122778,-1.80057 11.483448,-7.71479 5.64983,-13.8134 11.71095,-27.45295 17.65828,-41.13961 3.84219,-0.65633 3.72142,6.03293 5.87528,8.50603 6.83207,13.4784 11.39391,28.05277 18.61922,41.28908 6.89679,2.36172 8.87325,-4.71374 10.14446,-10.27336 -1.94773,-38.06871 31.063,-12.64265 31.29345,6.17775 -34.4527,72.29764 -70.07351,19.75519 -135.226684,-13.14998 -12.882018,-2.78641 -25.847299,8.33984 -23.302583,21.73541 -1.032874,8.7097 12.395493,19.49411 10.784655,23.07494 -5.736308,0.24474 -22.932401,-8.0135 -10.01117,-0.54378 10.585059,5.97008 21.016521,12.40293 32.257404,17.05936 -1.430573,-13.09193 -4.147129,-26.05224 -7.441583,-38.79431 -2.142261,4.81252 1.183496,21.72751 -5.472708,10.49337 -20.190677,-50.05211 61.564719,27.02348 87.812129,30.66887 z m -77.331878,-7.02427 c -3.92635,-0.67464 -19.231997,-10.12215 -7.169349,-4.52032 11.05428,11.26124 0.871135,-13.95581 4.188178,-10.4595 1.276466,4.92799 2.485556,9.90255 2.981171,14.97982 z m 84.100488,1.54724 C 131.51197,223.18869 92.311806,190.4034 65.30261,174.68765 33.941581,161.98969 36.376545,193.18041 55.172026,206.43493 30.916197,186.32633 44.092667,160.45202 71.769346,176.087 c 24.112772,13.8997 44.355414,34.45541 70.523244,44.69237 35.35461,9.23652 85.98711,-46.45084 38.21063,-73.77562 -6.79383,-4.79013 -7.22113,-8.33833 -0.49122,-2.12441 11.29505,8.28244 19.42808,15.30184 21.80109,32.24049 -5.7961,26.6663 -25.31215,43.50911 -53.43063,45.51147 z M 199.8503,73.63239 c 5.56028,-6.854057 18.78461,2.77528 27.18918,-7.373484 9.46941,-9.895729 5.22121,-25.685727 -7.13892,-30.560511 -11.36968,-7.14643 -26.14574,-9.3766 -35.06761,-20.037692 13.13388,12.017862 32.0597,14.300095 45.65249,25.395795 7.30444,6.708994 9.13329,18.566615 1.33899,25.700648 -7.60522,9.361542 -21.17602,11.054958 -31.97413,6.875244 z M 47.663942,73.740404 C 36.559418,74.793075 21.364428,74.809005 15.885791,63.048475 8.2917644,50.900593 19.999769,38.919474 30.608418,34.083976 41.198538,28.490966 52.750097,25.039056 64.27727,21.973706 51.060229,27.973723 35.98284,30.984334 24.618009,40.312435 16.87197,46.82776 13.118812,61.059117 23.398342,67.103757 c 6.78201,7.415631 20.391682,-0.623827 24.2656,6.636647 z"
     id="path3299"
     inkscape:connector-curvature="0"
     sodipodi:nodetypes="cccccccccccccccccccccccccccccccccccccccccccccccccccccccccccccccccccccccccccccccccccccccccccc"
     inkscape:export-xdpi="29.58531"
     inkscape:export-ydpi="29.58531"
     inkscape:export-filename="/Users/lrees/Versioned/Soul/App/org.hardknots.wikd.wikdshell/images/org.hardknots.wikd.wikdshell-screenshot-1.png" />
  <text
     xml:space="preserve"
     style="font-size:192.42835999px;font-style:normal;font-variant:normal;font-weight:normal;font-stretch:normal;line-height:125%;letter-spacing:0px;word-spacing:0px;fill:#000000;fill-opacity:1;stroke:none;font-family:GaramondNo8;-inkscape-font-specification:GaramondNo8"
     x="30.461582"
     y="179.56215"
     id="text3326"
     sodipodi:linespacing="125%"
     transform="scale(1.0024129,0.99759291)"
     inkscape:export-filename="/Users/lrees/Versioned/Soul/App/org.hardknots.wikd.wikdshell/images/org.hardknots.wikd.wikdshell-screenshot-1.png"
     inkscape:export-xdpi="29.58531"
     inkscape:export-ydpi="29.58531"><tspan
       sodipodi:role="line"
       id="tspan3328"
       x="30.461582"
       y="179.56215">W</tspan></text>
  <g
     id="g3069"
     transform="matrix(0.96304351,0,0,0.8880597,3.2925182,-1.4329852)"
     inkscape:export-filename="/Users/lrees/Versioned/Soul/App/org.hardknots.wikd.wikdshell/images/org.hardknots.wikd.wikdshell-screenshot-1.png"
     inkscape:export-xdpi="29.58531"
     inkscape:export-ydpi="29.58531">
    <rect
       y="82.517776"
       x="53.928932"
       height="87.065987"
       width="149.44162"
       id="rect3063"
       style="fill:#cccccc;fill-opacity:1;fill-rule:nonzero;stroke:none" />
    <rect
       y="87.905518"
       x="61.515976"
       height="11.422023"
       width="26.209763"
       id="rect3065"
       style="fill:#cccccc;fill-opacity:1;fill-rule:nonzero;stroke:none" />
    <rect
       y="86.612457"
       x="58.986965"
       height="78.014565"
       width="139.09566"
       id="rect3067"
       style="fill:#000000;fill-opacity:1;fill-rule:nonzero;stroke:none" />
  </g>
  <text
     xml:space="preserve"
     style="font-size:10px;font-style:normal;font-variant:normal;font-weight:normal;font-stretch:normal;line-height:125%;letter-spacing:0px;word-spacing:0px;fill:#000000;fill-opacity:1;stroke:none;font-family:Kailasa;-inkscape-font-specification:Kailasa"
     x="70.822334"
     y="93.238579"
     id="text3074"
     sodipodi:linespacing="125%"
     inkscape:export-filename="/Users/lrees/Versioned/Soul/App/org.hardknots.wikd.wikdshell/images/org.hardknots.wikd.wikdshell-screenshot-1.png"
     inkscape:export-xdpi="29.58531"
     inkscape:export-ydpi="29.58531"><tspan
       sodipodi:role="line"
       id="tspan3076"
       x="70.822334"
       y="93.238579" /></text>
  <text
     xml:space="preserve"
     style="font-size:17.3691597px;font-style:normal;font-variant:normal;font-weight:normal;font-stretch:normal;line-height:125%;letter-spacing:0px;word-spacing:0px;fill:#b3b3b3;fill-opacity:1;stroke:none;font-family:Kailasa;-inkscape-font-specification:Kailasa"
     x="62.62701"
     y="93.96431"
     id="text3078"
     sodipodi:linespacing="125%"
     inkscape:export-filename="/Users/lrees/Versioned/Soul/App/org.hardknots.wikd.wikdshell/images/org.hardknots.wikd.wikdshell-screenshot-1.png"
     inkscape:export-xdpi="29.58531"
     inkscape:export-ydpi="29.58531"><tspan
       sodipodi:role="line"
       id="tspan3080"
       x="62.62701"
       y="93.96431">Freeplane: ~</tspan></text>
  <rect
     style="fill:#999999;fill-opacity:1;fill-rule:nonzero;stroke:none"
     id="rect3082"
     width="5.6427836"
     height="15.799765"
     x="176.61104"
     y="82.678787"
     inkscape:export-filename="/Users/lrees/Versioned/Soul/App/org.hardknots.wikd.wikdshell/images/org.hardknots.wikd.wikdshell-screenshot-1.png"
     inkscape:export-xdpi="29.58531"
     inkscape:export-ydpi="29.58531" />
</svg>
